<svg xmlns="http://www.w3.org/2000/svg" xmlns:xlink="http://www.w3.org/1999/xlink" viewBox="0 0 100 100"><defs><style>.cls-1{fill:#0048b4;}.cls-2{fill:url(#Unbenannter_Verlauf_80);}.cls-3{fill:url(#Unbenannter_Verlauf_48);}.cls-4{fill:url(#Unbenannter_Verlauf_27);}.cls-5{fill:url(#Unbenannter_Verlauf_52);}</style><linearGradient id="Unbenannter_Verlauf_80" x1="6.84" y1="106.58" x2="6.84" y2="-0.1" gradientUnits="userSpaceOnUse"><stop offset="0" stop-color="#2b7cff"/><stop offset="0.58" stop-color="#1062e2"/><stop offset="1" stop-color="#0053d2"/></linearGradient><linearGradient id="Unbenannter_Verlauf_48" x1="34.52" y1="47.79" x2="15.13" y2="-5.51" gradientUnits="userSpaceOnUse"><stop offset="0" stop-color="#005df0"/><stop offset="0.16" stop-color="#0560f1"/><stop offset="0.34" stop-color="#1369f2"/><stop offset="0.53" stop-color="#2a79f5"/><stop offset="0.74" stop-color="#4b8ef9"/><stop offset="0.95" stop-color="#74a9fe"/><stop offset="1" stop-color="#80b1ff"/></linearGradient><linearGradient id="Unbenannter_Verlauf_27" x1="51.07" y1="72.87" x2="122.19" y2="31.81" gradientUnits="userSpaceOnUse"><stop offset="0" stop-color="#0058e1"/><stop offset="0.89" stop-color="#4b8ffc"/><stop offset="1" stop-color="#5596ff"/></linearGradient><linearGradient id="Unbenannter_Verlauf_52" x1="8.89" y1="97.24" x2="39.38" y2="44.42" gradientUnits="userSpaceOnUse"><stop offset="0" stop-color="#004dc3"/><stop offset="0.22" stop-color="#0c5ad3"/><stop offset="0.72" stop-color="#2273f3"/><stop offset="1" stop-color="#2b7cff"/></linearGradient></defs><title>Block-Control-final</title><g id="Zeichenfläche_2" data-name="Zeichenfläche 2"><g id="Ebene_6" data-name="Ebene 6"><rect class="cls-1" width="100" height="100"/><rect class="cls-2" width="13.68" height="100"/><path class="cls-3" d="M46.69,25.55C46.69,13.71,38.88,0,22.93,0H0V13.58H19.38c10.12,0,13.71,6.44,13.71,12a11.61,11.61,0,0,1-3.21,8.17c-2.22,2.29-5.48,3.57-9.46,3.76H13.68V51.16h7c9.7-.31,15.6-4.49,19-8A25.16,25.16,0,0,0,46.69,25.55Z"/><path class="cls-4" d="M100,84.38c-18.24,1.26-27.5-7-32.07-14.36-7.23-11.59-7.12-27.93.28-39.73C74.77,19.82,86,14.65,100,15.58V0H88.91C74.4,2,62.32,9.56,54.65,21.79,44,38.86,43.84,61.64,54.35,78.49,61.94,90.66,74.18,98.11,89,100h11Z"/><path class="cls-5" d="M50,68.74C50,53.2,38.82,37.47,17.41,37.47H13.68V51.16h3.73c13.07,0,18.92,8.82,18.92,17.57S30.48,86.31,17.41,86.31H13.68V100h5.85C39.62,99,50,83.78,50,68.74Z"/></g></g></svg>