<?xml version="1.0" encoding="UTF-8"?><svg id="uuid-e5315d34-1024-4d5a-b100-594ae031acb1" xmlns="http://www.w3.org/2000/svg" xmlns:xlink="http://www.w3.org/1999/xlink" viewBox="0 0 99.56 100.01"><defs><style>.uuid-88261312-2dd5-486d-b865-d91e5908b6c0{fill:url(#uuid-46832018-22bb-4e21-8626-6daf6e03d61f);}.uuid-e87f31ea-502b-412f-8ee0-4d4209fee264{fill:url(#uuid-d45cc439-67a5-4c17-90c9-39b8759a8f4a);}.uuid-b03ce7e8-5a31-454d-8c4e-fe8ee54179f3{fill:url(#uuid-6fff4f15-3a99-4077-bf35-f3bf24163d12);}.uuid-1d6d5a78-f7c9-4410-b493-c61612cda168{fill:url(#uuid-6dbc7c2e-93a2-4db3-8a65-d49ee3ee6829);}.uuid-d6c3a054-e513-4954-b4fc-57f67d748f1b{fill:url(#uuid-ac2e7071-cdea-4073-9c64-94f4902d7037);}.uuid-7b308e5d-6956-434a-8e79-79aee9a682e4{fill:url(#uuid-04265048-f865-40e2-b189-8bf25abe0cff);}</style><linearGradient id="uuid-6dbc7c2e-93a2-4db3-8a65-d49ee3ee6829" x1="61.9" y1="106.57" x2="61.9" y2=".02" gradientUnits="userSpaceOnUse"><stop offset="0" stop-color="#f9e368"/><stop offset=".05" stop-color="#edd673"/><stop offset=".29" stop-color="#bca1a5"/><stop offset=".51" stop-color="#9578cb"/><stop offset=".71" stop-color="#795ae7"/><stop offset=".88" stop-color="#6948f8"/><stop offset="1" stop-color="#6342ff"/></linearGradient><linearGradient id="uuid-ac2e7071-cdea-4073-9c64-94f4902d7037" x1="950.77" y1="-215.98" x2="950.77" y2="-241.78" gradientTransform="translate(-926.26 273.4)" gradientUnits="userSpaceOnUse"><stop offset="0" stop-color="#fbec9b"/><stop offset=".13" stop-color="#e5d3a9"/><stop offset=".55" stop-color="#9f85d7"/><stop offset=".85" stop-color="#7354f3"/><stop offset="1" stop-color="#6342ff"/></linearGradient><linearGradient id="uuid-6fff4f15-3a99-4077-bf35-f3bf24163d12" x1="6.81" y1="99.68" x2="6.81" y2=".23" xlink:href="#uuid-6dbc7c2e-93a2-4db3-8a65-d49ee3ee6829"/><linearGradient id="uuid-46832018-22bb-4e21-8626-6daf6e03d61f" x1="988.25" y1="-253.39" x2="988.25" y2="-201.74" gradientTransform="translate(-962.42 234.61)" gradientUnits="userSpaceOnUse"><stop offset="0" stop-color="#f9e368"/><stop offset=".12" stop-color="#e3cb84"/><stop offset=".31" stop-color="#c3aaae"/><stop offset=".5" stop-color="#aa90ce"/><stop offset=".68" stop-color="#997ee6"/><stop offset=".85" stop-color="#8e72f4"/><stop offset="1" stop-color="#8b6ff9"/></linearGradient><linearGradient id="uuid-d45cc439-67a5-4c17-90c9-39b8759a8f4a" x1="90.78" y1="47.81" x2="71.29" y2="-5.75" gradientUnits="userSpaceOnUse"><stop offset="0" stop-color="#6440f7"/><stop offset=".12" stop-color="#6d4aed"/><stop offset=".33" stop-color="#8766d4"/><stop offset=".6" stop-color="#b194ac"/><stop offset=".93" stop-color="#ebd375"/><stop offset="1" stop-color="#f9e368"/></linearGradient><linearGradient id="uuid-04265048-f865-40e2-b189-8bf25abe0cff" x1="64.54" y1="97.84" x2="95.54" y2="44.15" gradientUnits="userSpaceOnUse"><stop offset="0" stop-color="#6440f7"/><stop offset=".12" stop-color="#6d4aed"/><stop offset=".33" stop-color="#8766d4"/><stop offset=".6" stop-color="#b194ac"/><stop offset=".93" stop-color="#ebd375"/><stop offset="1" stop-color="#f9e368"/></linearGradient></defs><g id="uuid-8c0503da-a66b-4833-933f-4eede15bbc94"><g id="uuid-3e53d28b-1038-403d-9140-2f13f64433b9"><g><rect class="uuid-1d6d5a78-f7c9-4410-b493-c61612cda168" x="55.49" y=".12" width="12.81" height="99.88"/><g><rect class="uuid-d6c3a054-e513-4954-b4fc-57f67d748f1b" x="17.7" y="31.63" width="13.62" height="25.79" transform="translate(-20.01 69.04) rotate(-90)"/><rect class="uuid-b03ce7e8-5a31-454d-8c4e-fe8ee54179f3" y=".23" width="13.62" height="99.45"/><rect class="uuid-88261312-2dd5-486d-b865-d91e5908b6c0" x="19.02" y="-18.78" width="13.62" height="51.65" transform="translate(18.78 32.87) rotate(-90)"/></g><path class="uuid-e87f31ea-502b-412f-8ee0-4d4209fee264" d="m99.56,10.44c-3.75-5.31-9.83-9.4-18.45-10.28l-.63-.06-2.1-.1h-22.88v12.36h22.88v.02c10.09.3,13.69,7.05,13.69,12.85,0,3.37-1.21,6.49-3.4,8.79-2.33,2.44-5.76,3.83-9.92,4.04l-10.43.2,4.36,12.26h6.27c7.48-.24,13.69-2.89,18.45-7.87.79-.82,1.51-1.7,2.16-2.61V10.44Z"/><path class="uuid-7b308e5d-6956-434a-8e79-79aee9a682e4" d="m99.56,48.02c-5.35-5.85-13.34-9.78-23.86-9.78h-7.4v12.41h7.4c13.53,0,19.59,9.29,19.59,18.48s-5.85,18.14-18.89,18.46h0s-.7.02-.7.02h-7.39v12.4h8.1s.93,0,.93,0l.35-.04c8.91-.43,16.45-3.79,21.87-9.73v-42.22Z"/></g></g></g></svg>