<?xml version="1.0" encoding="utf-8"?><!-- Generator: Adobe Illustrator 22.1.0, SVG Export Plug-In . SVG Version: 6.00 Build 0)  --><svg version="1.1" id="Ebene_1" xmlns="http://www.w3.org/2000/svg" xmlns:xlink="http://www.w3.org/1999/xlink" x="0px" y="0px" viewBox="0 0 181 107.1" style="enable-background:new 0 0 181 107.1;" xml:space="preserve"><style type="text/css">.st0{fill:#FFFFFF;}.st1{opacity:0.5;fill:#FFFFFF;enable-background:new    ;}.st2{opacity:0.7;fill:#FFFFFF;enable-background:new    ;}.st3{opacity:0.1;fill:#FFFFFF;enable-background:new    ;}.st4{opacity:0.3;fill:#FFFFFF;enable-background:new    ;}</style><path class="st1" d="M144.4,37C136.4,16.5,105,9.5,101,8.2c1.2,4.7,10.5,36.8,39.8,55.9c11.5,7.5,27.8,10.1,40.1,10.8C163,72.6,152.3,57.1,144.4,37z"/><path class="st2" d="M146.4,29.1c-7.1-13.5-21.1-20.8-24-21.1c1,1.7,1.9,5,3.1,9.8c1.9,7.3,4.4,17.2,9.5,28.7c7.6,17.1,31.7,28.2,45.8,28.6c-7.4-0.6-19.1-6.5-25.2-16.8C150.2,49,150.2,36.3,146.4,29.1z"/><path class="st2" d="M132.5,40.2c-11-6.9-19.5-9.3-25.4-12.2c-4.1-2-7-3.4-8.7-4.7c1.9,5.3,9.7,24.7,21.8,36.8c21,21,49.5,17.3,60.7,14.9C164.7,74.4,139.7,44.7,132.5,40.2z"/><path class="st3" d="M86.4,94.1c39.2,8.7,83.3-11.9,94.5-19.2c-7.4,2.8-28.9,8.9-44.2,4c-13.3-4.2-25.2-10.4-36.7-16.4c-14.1-7.3-27.5-14.3-41.1-16.2C23.7,41.4,5.2,59.7,2.1,63.2C24.1,58.6,69.8,90.5,86.4,94.1z"/><path class="st4" d="M121.5,79.8C110.4,77,99.9,74.3,90,75.2c-25,2.3-50.9,20.1-52.8,23.4c37-10.3,49.3,11.7,83,6.5c23.6-3.7,53.4-22.6,60.7-30.1c-4.8,3.1-20.5,11.1-30.9,10.2C140,84.4,130.6,82.1,121.5,79.8z"/></svg>
