<?xml version="1.0" encoding="UTF-8"?><svg id="Ebene_1" xmlns="http://www.w3.org/2000/svg" viewBox="0 0 181 107.1"><path d="M144.4,37c-8-20.5-39.4-27.5-43.4-28.8,1.2,4.7,10.5,36.8,39.8,55.9,11.5,7.5,27.8,10.1,40.1,10.8-17.9-2.3-28.6-17.8-36.5-37.9Z" isolation="isolate" opacity=".5"/><path d="M146.4,29.1c-7.1-13.5-21.1-20.8-24-21.1,1,1.7,1.9,5,3.1,9.8,1.9,7.3,4.4,17.2,9.5,28.7,7.6,17.1,31.7,28.2,45.8,28.6-7.4-.6-19.1-6.5-25.2-16.8-5.4-9.3-5.4-22-9.2-29.2Z" isolation="isolate" opacity=".7"/><path d="M132.5,40.2c-11-6.9-19.5-9.3-25.4-12.2-4.1-2-7-3.4-8.7-4.7,1.9,5.3,9.7,24.7,21.8,36.8,21,21,49.5,17.3,60.7,14.9-16.2-.6-41.2-30.3-48.4-34.8Z" isolation="isolate" opacity=".7"/><path d="M86.4,94.1c39.2,8.7,83.3-11.9,94.5-19.2-7.4,2.8-28.9,8.9-44.2,4-13.3-4.2-25.2-10.4-36.7-16.4-14.1-7.3-27.5-14.3-41.1-16.2C23.7,41.4,5.2,59.7,2.1,63.2c22-4.6,67.7,27.3,84.3,30.9Z" isolation="isolate" opacity=".1"/><path d="M121.5,79.8c-11.1-2.8-21.6-5.5-31.5-4.6-25,2.3-50.9,20.1-52.8,23.4,37-10.3,49.3,11.7,83,6.5,23.6-3.7,53.4-22.6,60.7-30.1-4.8,3.1-20.5,11.1-30.9,10.2-10-.8-19.4-3.1-28.5-5.4Z" isolation="isolate" opacity=".3"/></svg>